REM DIRINDEX 1\2,1\3\5,1\3\6,1\4\7,1\4\8
REM DIRNAME folder01,folder02,folder03,folder04,folder05,folder06,folder07,folder08
TITLE ""
FILE "JE_13.mp3" MP3
  TRACK 01 AUDIO
    TITLE "0:"
    INDEX 01 00:00:00
  TRACK 02 AUDIO
    TITLE "7:cjc139_3521"
    INDEX 01 00:00:17
  TRACK 03 AUDIO
    TITLE "0:"
    INDEX 01 00:02:61
  TRACK 04 AUDIO
    TITLE "8:cjc139_3522"
    INDEX 01 00:05:48
  TRACK 05 AUDIO
    TITLE "0:"
    INDEX 01 00:08:52
  TRACK 06 AUDIO
    TITLE "7:cjc139_3523"
    INDEX 01 00:11:37
  TRACK 07 AUDIO
    TITLE "0:"
    INDEX 01 00:14:33
  TRACK 08 AUDIO
    TITLE "8:cjc139_3524"
    INDEX 01 00:17:20
  TRACK 09 AUDIO
    TITLE "0:"
    INDEX 01 00:20:61
  TRACK 10 AUDIO
    TITLE "7:cjc139_3525"
    INDEX 01 00:23:50
  TRACK 11 AUDIO
    TITLE "0:"
    INDEX 01 00:27:43
  TRACK 12 AUDIO
    TITLE "8:cjc139_3526"
    INDEX 01 00:30:28
  TRACK 13 AUDIO
    TITLE "0:"
    INDEX 01 00:34:38
  TRACK 14 AUDIO
    TITLE "7:cjc139_3527"
    INDEX 01 00:37:26
  TRACK 15 AUDIO
    TITLE "0:"
    INDEX 01 00:40:38
  TRACK 16 AUDIO
    TITLE "8:cjc139_3528"
    INDEX 01 00:43:23
  TRACK 17 AUDIO
    TITLE "0:"
    INDEX 01 00:46:68
  TRACK 18 AUDIO
    TITLE "7:cjc139_3529"
    INDEX 01 00:49:57
  TRACK 19 AUDIO
    TITLE "0:"
    INDEX 01 00:53:06
  TRACK 20 AUDIO
    TITLE "8:cjc139_3530"
    INDEX 01 00:55:65
  TRACK 21 AUDIO
    TITLE "0:"
    INDEX 01 00:59:57
  TRACK 22 AUDIO
    TITLE "7:cjc139_3531"
    INDEX 01 01:02:42
  TRACK 23 AUDIO
    TITLE "0:"
    INDEX 01 01:06:10
  TRACK 24 AUDIO
    TITLE "8:cjc139_3532"
    INDEX 01 01:08:70
  TRACK 25 AUDIO
    TITLE "0:"
    INDEX 01 01:13:04
  TRACK 26 AUDIO
    TITLE "7:cjc139_3533"
    INDEX 01 01:15:64
  TRACK 27 AUDIO
    TITLE "0:"
    INDEX 01 01:18:04
  TRACK 28 AUDIO
    TITLE "8:cjc139_3534"
    INDEX 01 01:20:65
  TRACK 29 AUDIO
    TITLE "0:"
    INDEX 01 01:23:60
  TRACK 30 AUDIO
    TITLE "7:cjc139_3535"
    INDEX 01 01:26:48
  TRACK 31 AUDIO
    TITLE "0:"
    INDEX 01 01:29:58
  TRACK 32 AUDIO
    TITLE "8:cjc139_3536"
    INDEX 01 01:32:45
  TRACK 33 AUDIO
    TITLE "0:"
    INDEX 01 01:36:01
  TRACK 34 AUDIO
    TITLE "7:cjc139_3537"
    INDEX 01 01:38:61
  TRACK 35 AUDIO
    TITLE "0:"
    INDEX 01 01:41:46
  TRACK 36 AUDIO
    TITLE "8:cjc139_3538"
    INDEX 01 01:44:32
  TRACK 37 AUDIO
    TITLE "0:"
    INDEX 01 01:48:28
  TRACK 38 AUDIO
    TITLE "7:cjc139_3539"
    INDEX 01 01:51:15
  TRACK 39 AUDIO
    TITLE "0:"
    INDEX 01 01:53:70
  TRACK 40 AUDIO
    TITLE "8:cjc139_3540"
    INDEX 01 01:56:55
  TRACK 41 AUDIO
    TITLE "0:"
    INDEX 01 02:00:20
  TRACK 42 AUDIO
    TITLE "7:cjc139_3541"
    INDEX 01 02:03:02
  TRACK 43 AUDIO
    TITLE "0:"
    INDEX 01 02:05:64
  TRACK 44 AUDIO
    TITLE "8:cjc139_3542"
    INDEX 01 02:08:50
  TRACK 45 AUDIO
    TITLE "0:"
    INDEX 01 02:12:01
  TRACK 46 AUDIO
    TITLE "7:cjc139_3543"
    INDEX 01 02:14:65
  TRACK 47 AUDIO
    TITLE "0:"
    INDEX 01 02:18:49
  TRACK 48 AUDIO
    TITLE "8:cjc139_3544"
    INDEX 01 02:21:37
  TRACK 49 AUDIO
    TITLE "0:"
    INDEX 01 02:25:37
  TRACK 50 AUDIO
    TITLE "7:cjc139_3545"
    INDEX 01 02:28:24
  TRACK 51 AUDIO
    TITLE "0:"
    INDEX 01 02:31:46
  TRACK 52 AUDIO
    TITLE "8:cjc139_3546"
    INDEX 01 02:34:30
  TRACK 53 AUDIO
    TITLE "0:"
    INDEX 01 02:38:46
  TRACK 54 AUDIO
    TITLE "7:cjc139_3547"
    INDEX 01 02:41:32
  TRACK 55 AUDIO
    TITLE "0:"
    INDEX 01 02:44:58
  TRACK 56 AUDIO
    TITLE "8:cjc139_3548"
    INDEX 01 02:47:45
  TRACK 57 AUDIO
    TITLE "0:"
    INDEX 01 02:50:49
  TRACK 58 AUDIO
    TITLE "7:cjc139_3549"
    INDEX 01 02:53:33
  TRACK 59 AUDIO
    TITLE "0:"
    INDEX 01 02:56:18
  TRACK 60 AUDIO
    TITLE "8:cjc139_3550"
    INDEX 01 02:59:03
  TRACK 61 AUDIO
    TITLE "0:"
    INDEX 01 03:01:70
  TRACK 62 AUDIO
    TITLE "7:cjc139_3551"
    INDEX 01 03:04:55
  TRACK 63 AUDIO
    TITLE "0:"
    INDEX 01 03:08:66
  TRACK 64 AUDIO
    TITLE "8:cjc139_3552"
    INDEX 01 03:11:53
  TRACK 65 AUDIO
    TITLE "0:"
    INDEX 01 03:16:29
  TRACK 66 AUDIO
    TITLE "7:cjc139_3553"
    INDEX 01 03:19:11
  TRACK 67 AUDIO
    TITLE "0:"
    INDEX 01 03:22:39
  TRACK 68 AUDIO
    TITLE "8:cjc139_3554"
    INDEX 01 03:25:24
  TRACK 69 AUDIO
    TITLE "0:"
    INDEX 01 03:28:46
  TRACK 70 AUDIO
    TITLE "7:cjc139_3555"
    INDEX 01 03:31:30
  TRACK 71 AUDIO
    TITLE "0:"
    INDEX 01 03:33:62
  TRACK 72 AUDIO
    TITLE "8:cjc139_3556"
    INDEX 01 03:36:45
  TRACK 73 AUDIO
    TITLE "0:"
    INDEX 01 03:38:50
  TRACK 74 AUDIO
    TITLE "7:cjc139_3557"
    INDEX 01 03:41:38
  TRACK 75 AUDIO
    TITLE "0:"
    INDEX 01 03:44:17
  TRACK 76 AUDIO
    TITLE "8:cjc139_3558"
    INDEX 01 03:47:00
  TRACK 77 AUDIO
    TITLE "0:"
    INDEX 01 03:49:28
  TRACK 78 AUDIO
    TITLE "7:cjc139_3559"
    INDEX 01 03:52:13
  TRACK 79 AUDIO
    TITLE "0:"
    INDEX 01 03:54:29
  TRACK 80 AUDIO
    TITLE "8:cjc139_3560"
    INDEX 01 03:57:14
  TRACK 81 AUDIO
    TITLE "0:"
    INDEX 01 03:59:70
  TRACK 82 AUDIO
    TITLE "7:cjc139_3561"
    INDEX 01 04:02:56
  TRACK 83 AUDIO
    TITLE "0:"
    INDEX 01 04:05:17
  TRACK 84 AUDIO
    TITLE "8:cjc139_3562"
    INDEX 01 04:08:02
  TRACK 85 AUDIO
    TITLE "0:"
    INDEX 01 04:11:24
  TRACK 86 AUDIO
    TITLE "7:cjc139_3563"
    INDEX 01 04:14:10
  TRACK 87 AUDIO
    TITLE "0:"
    INDEX 01 04:16:19
  TRACK 88 AUDIO
    TITLE "8:cjc139_3564"
    INDEX 01 04:19:08
  TRACK 89 AUDIO
    TITLE "0:"
    INDEX 01 04:23:00
  TRACK 90 AUDIO
    TITLE "7:cjc139_3565"
    INDEX 01 04:25:59
  TRACK 91 AUDIO
    TITLE "0:"
    INDEX 01 04:28:61
  TRACK 92 AUDIO
    TITLE "8:cjc139_3566"
    INDEX 01 04:31:48
  TRACK 93 AUDIO
    TITLE "0:"
    INDEX 01 04:34:62
  TRACK 94 AUDIO
    TITLE "7:cjc139_3567"
    INDEX 01 04:37:47
  TRACK 95 AUDIO
    TITLE "0:"
    INDEX 01 04:40:67
  TRACK 96 AUDIO
    TITLE "8:cjc139_3568"
    INDEX 01 04:43:53
  TRACK 97 AUDIO
    TITLE "0:"
    INDEX 01 04:48:11
  TRACK 98 AUDIO
    TITLE "7:cjc139_3569"
    INDEX 01 04:50:69
  TRACK 99 AUDIO
    TITLE "0:"
    INDEX 01 04:54:02
  TRACK 100 AUDIO
    TITLE "8:cjc139_3570"
    INDEX 01 04:56:64
  TRACK 101 AUDIO
    TITLE "0:"
    INDEX 01 05:00:20
  TRACK 102 AUDIO
    TITLE "7:cjc139_3571"
    INDEX 01 05:03:07
  TRACK 103 AUDIO
    TITLE "0:"
    INDEX 01 05:05:61
  TRACK 104 AUDIO
    TITLE "8:cjc139_3572"
    INDEX 01 05:08:47
  TRACK 105 AUDIO
    TITLE "0:"
    INDEX 01 05:12:41
  TRACK 106 AUDIO
    TITLE "7:cjc139_3573"
    INDEX 01 05:15:22
  TRACK 107 AUDIO
    TITLE "0:"
    INDEX 01 05:18:55
  TRACK 108 AUDIO
    TITLE "8:cjc139_3574"
    INDEX 01 05:21:40
  TRACK 109 AUDIO
    TITLE "0:"
    INDEX 01 05:25:38
  TRACK 110 AUDIO
    TITLE "7:cjc139_3575"
    INDEX 01 05:28:26
  TRACK 111 AUDIO
    TITLE "0:"
    INDEX 01 05:31:13
  TRACK 112 AUDIO
    TITLE "8:cjc139_3576"
    INDEX 01 05:33:73
  TRACK 113 AUDIO
    TITLE "0:"
    INDEX 01 05:37:74
  TRACK 114 AUDIO
    TITLE "7:cjc139_3577"
    INDEX 01 05:40:57
  TRACK 115 AUDIO
    TITLE "0:"
    INDEX 01 05:43:67
  TRACK 116 AUDIO
    TITLE "8:cjc139_3578"
    INDEX 01 05:46:52
  TRACK 117 AUDIO
    TITLE "0:"
    INDEX 01 05:50:59
  TRACK 118 AUDIO
    TITLE "7:cjc139_3579"
    INDEX 01 05:53:42
  TRACK 119 AUDIO
    TITLE "0:"
    INDEX 01 05:57:26
  TRACK 120 AUDIO
    TITLE "8:cjc139_3580"
    INDEX 01 06:00:09
  TRACK 121 AUDIO
    TITLE "0:"
    INDEX 01 06:04:22
  TRACK 122 AUDIO
    TITLE "7:cjc139_3581"
    INDEX 01 06:07:07
  TRACK 123 AUDIO
    TITLE "0:"
    INDEX 01 06:09:74
  TRACK 124 AUDIO
    TITLE "8:cjc139_3582"
    INDEX 01 06:12:57
  TRACK 125 AUDIO
    TITLE "0:"
    INDEX 01 06:13:58
  TRACK 126 AUDIO
    TITLE "7:cjc139_3583"
    INDEX 01 06:16:45
  TRACK 127 AUDIO
    TITLE "0:"
    INDEX 01 06:20:39
  TRACK 128 AUDIO
    TITLE "8:cjc139_3584"
    INDEX 01 06:23:26
  TRACK 129 AUDIO
    TITLE "0:"
    INDEX 01 06:25:30
  TRACK 130 AUDIO
    TITLE "7:cjc139_3585"
    INDEX 01 06:28:17
  TRACK 131 AUDIO
    TITLE "0:"
    INDEX 01 06:30:41
  TRACK 132 AUDIO
    TITLE "8:cjc139_3586"
    INDEX 01 06:33:24
  TRACK 133 AUDIO
    TITLE "0:"
    INDEX 01 06:35:29
  TRACK 134 AUDIO
    TITLE "7:cjc139_3587"
    INDEX 01 06:38:11
  TRACK 135 AUDIO
    TITLE "0:"
    INDEX 01 06:42:66
  TRACK 136 AUDIO
    TITLE "8:cjc139_3588"
    INDEX 01 06:45:53
  TRACK 137 AUDIO
    TITLE "0:"
    INDEX 01 06:49:56
  TRACK 138 AUDIO
    TITLE "7:cjc139_3589"
    INDEX 01 06:52:43
  TRACK 139 AUDIO
    TITLE "0:"
    INDEX 01 06:55:35
  TRACK 140 AUDIO
    TITLE "8:cjc139_3590"
    INDEX 01 06:58:20
  TRACK 141 AUDIO
    TITLE "0:"
    INDEX 01 07:01:65
  TRACK 142 AUDIO
    TITLE "7:cjc139_3591"
    INDEX 01 07:04:50
  TRACK 143 AUDIO
    TITLE "0:"
    INDEX 01 07:07:74
  TRACK 144 AUDIO
    TITLE "8:cjc139_3592"
    INDEX 01 07:10:58
  TRACK 145 AUDIO
    TITLE "0:"
    INDEX 01 07:14:39
  TRACK 146 AUDIO
    TITLE "7:cjc139_3593"
    INDEX 01 07:17:23
  TRACK 147 AUDIO
    TITLE "0:"
    INDEX 01 07:20:10
  TRACK 148 AUDIO
    TITLE "8:cjc139_3594"
    INDEX 01 07:22:69
  TRACK 149 AUDIO
    TITLE "0:"
    INDEX 01 07:26:30
  TRACK 150 AUDIO
    TITLE "7:cjc139_3595"
    INDEX 01 07:29:13
  TRACK 151 AUDIO
    TITLE "0:"
    INDEX 01 07:31:12
  TRACK 152 AUDIO
    TITLE "8:cjc139_3596"
    INDEX 01 07:33:69
  TRACK 153 AUDIO
    TITLE "0:"
    INDEX 01 07:36:17
  TRACK 154 AUDIO
    TITLE "7:cjc139_3597"
    INDEX 01 07:38:74
  TRACK 155 AUDIO
    TITLE "0:"
    INDEX 01 07:41:20
  TRACK 156 AUDIO
    TITLE "8:cjc139_3598"
    INDEX 01 07:44:04
  TRACK 157 AUDIO
    TITLE "0:"
    INDEX 01 07:46:17
  TRACK 158 AUDIO
    TITLE "7:cjc139_3599"
    INDEX 01 07:49:04
  TRACK 159 AUDIO
    TITLE "0:"
    INDEX 01 07:51:16
  TRACK 160 AUDIO
    TITLE "8:cjc139_3600"
    INDEX 01 07:54:03
  TRACK 161 AUDIO
    TITLE "0:"
    INDEX 01 07:56:17
